<?xml version="1.0" standalone="no"?>
<!DOCTYPE svg PUBLIC "-//W3C//DTD SVG 20010904//EN"
 "http://www.w3.org/TR/2001/REC-SVG-20010904/DTD/svg10.dtd">
<svg version="1.0" xmlns="http://www.w3.org/2000/svg"
 width="823.000000pt" height="343.000000pt" viewBox="0 0 823.000000 343.000000"
 preserveAspectRatio="xMidYMid meet">
<metadata>
Created by potrace 1.16, written by Peter Selinger 2001-2019
</metadata>
<g transform="translate(0.000000,343.000000) scale(0.100000,-0.100000)"
fill="#000000" stroke="none">
<path d="M1010 3227 c-55 -28 -104 -178 -98 -306 3 -59 5 -66 24 -69 20 -3 23
3 29 60 11 91 40 179 80 238 19 29 35 53 35 55 0 7 -31 35 -38 35 -4 0 -18 -6
-32 -13z"/>
<path d="M750 3209 c-61 -12 -139 -52 -192 -98 -129 -114 -140 -288 -21 -350
l36 -18 -62 -21 c-109 -37 -190 -89 -281 -181 -133 -134 -200 -287 -200 -458
0 -146 68 -263 182 -313 78 -35 223 -40 315 -11 170 51 294 183 353 376 39
129 20 283 -38 314 -29 15 -84 14 -107 -3 -17 -13 -17 -14 10 -27 16 -8 38
-30 49 -49 30 -51 28 -201 -3 -283 -50 -129 -149 -237 -251 -273 -25 -8 -79
-18 -121 -21 -68 -5 -83 -3 -132 20 -103 47 -143 134 -135 290 9 151 67 286
177 408 99 111 225 178 376 200 41 6 75 14 75 18 0 18 -28 31 -65 31 -56 0
-110 17 -141 44 -37 31 -44 107 -16 162 50 97 165 165 283 168 50 1 69 5 69
14 0 17 -20 55 -34 64 -14 10 -68 8 -126 -3z"/>
<path d="M2832 3195 c-110 -92 -254 -575 -282 -947 -16 -215 12 -388 74 -455
27 -30 41 -36 84 -41 38 -3 58 0 77 12 27 18 95 113 95 133 0 20 -28 15 -35
-6 -9 -31 -82 -91 -110 -91 -31 0 -62 33 -78 85 -20 67 -14 338 12 490 38 230
107 483 192 713 22 58 37 112 35 119 -8 20 -31 16 -64 -12z"/>
<path d="M4128 3178 c-107 -115 -209 -491 -238 -878 -16 -203 -2 -290 43 -290
7 0 24 35 37 78 28 86 149 339 205 429 57 89 124 163 147 163 16 0 19 -4 14
-22 -3 -13 -18 -79 -33 -148 -23 -107 -27 -150 -27 -300 -1 -145 2 -185 17
-231 20 -59 53 -103 86 -114 27 -8 73 17 91 49 17 32 6 45 -18 23 -26 -24 -57
-21 -69 6 -41 89 -11 400 63 653 21 73 23 89 12 112 -26 54 -101 54 -181 1
-68 -45 -138 -144 -223 -314 -75 -149 -76 -150 -69 -95 24 217 110 587 176
757 57 149 58 153 24 153 -17 0 -37 -11 -57 -32z"/>
<path d="M3611 2934 c-49 -44 -115 -146 -216 -334 -43 -80 -100 -181 -127
-224 -47 -77 -54 -106 -24 -106 18 0 92 120 209 339 l92 175 7 -65 c3 -35 16
-113 28 -174 42 -220 36 -370 -23 -498 -27 -60 -77 -114 -114 -123 -36 -9 -76
24 -86 72 -20 96 61 314 149 399 30 30 44 51 40 61 -14 37 -115 -73 -174 -191
-41 -83 -62 -158 -62 -227 0 -75 20 -122 62 -148 93 -57 228 11 296 149 25 52
27 65 26 171 0 99 -5 135 -36 255 -20 77 -40 163 -44 191 -9 69 15 148 66 215
22 29 40 64 40 76 0 20 -5 23 -35 23 -26 0 -45 -9 -74 -36z"/>
<path d="M2087 2756 c-57 -21 -116 -65 -160 -121 -49 -61 -120 -207 -142 -295
-19 -71 -25 -193 -12 -252 17 -80 90 -126 157 -98 43 18 120 106 200 229 39
58 71 110 73 116 3 5 8 7 12 3 7 -6 -19 -186 -46 -324 l-10 -50 -77 -11 c-99
-15 -163 -36 -236 -81 -65 -39 -176 -145 -176 -168 0 -28 27 -13 95 54 39 38
94 80 125 95 71 34 169 59 219 55 l39 -3 -25 -85 c-65 -229 -167 -340 -311
-340 -57 0 -92 15 -124 53 -21 26 -29 30 -39 20 -17 -17 14 -60 62 -88 43 -25
162 -26 228 -1 120 45 216 170 281 369 12 37 26 67 32 67 19 0 67 -34 79 -56
7 -13 15 -40 18 -61 l6 -38 23 23 c26 26 28 61 6 108 -16 34 -75 74 -109 74
-20 0 -20 4 20 219 37 200 94 420 121 472 14 28 14 33 1 47 -13 13 -21 13 -46
2 -36 -15 -45 -27 -137 -201 -145 -274 -271 -449 -322 -449 -76 0 -37 308 64
514 46 93 86 141 135 160 49 20 70 15 103 -25 29 -34 66 -39 66 -9 0 11 -13
34 -28 51 -23 26 -37 32 -78 35 -27 3 -66 -2 -87 -10z"/>
<path d="M1191 2744 c-67 -47 -131 -335 -131 -586 0 -100 13 -141 45 -146 17
-2 25 11 50 85 61 180 204 447 293 545 42 47 78 52 67 11 -59 -224 -81 -508
-51 -637 20 -84 47 -130 85 -146 25 -10 34 -9 60 6 31 18 59 59 48 71 -4 3
-15 -1 -25 -10 -10 -10 -28 -17 -40 -17 -39 0 -47 34 -46 185 1 114 7 168 33
295 17 85 40 183 51 218 21 68 16 103 -19 121 -76 41 -192 -32 -288 -181 -45
-70 -153 -286 -153 -307 0 -6 -4 -11 -10 -11 -5 0 -10 4 -10 9 0 29 36 208 66
333 44 175 39 206 -25 162z"/>
<path d="M3067 2690 c-48 -57 -87 -199 -107 -390 -20 -196 -7 -315 35 -315 18
0 21 9 27 94 12 157 61 386 115 538 14 40 23 79 20 88 -11 27 -62 18 -90 -15z"/>
<path d="M3402 1769 c-121 -21 -322 -108 -445 -191 -241 -164 -387 -382 -421
-629 -17 -121 45 -282 141 -368 81 -73 143 -94 260 -89 86 4 98 7 188 51 116
58 221 156 275 257 33 61 35 71 35 156 0 84 -2 93 -29 128 -50 66 -124 82
-203 46 -42 -18 -61 -47 -25 -36 89 26 143 10 169 -52 26 -62 14 -174 -27
-251 -39 -72 -127 -167 -192 -205 -155 -90 -350 -58 -432 72 -128 205 -29 537
233 785 129 122 335 239 477 273 149 35 331 -2 369 -75 56 -110 17 -305 -145
-711 -140 -351 -199 -559 -200 -698 0 -130 34 -168 142 -160 228 19 611 377
793 743 71 144 95 220 95 307 0 71 -16 113 -66 168 -56 62 -141 99 -159 70
-11 -18 14 -38 56 -45 58 -10 74 -45 74 -160 -1 -112 -26 -199 -102 -347 -82
-161 -162 -267 -328 -434 -199 -201 -315 -276 -371 -239 -12 8 -25 27 -29 43
-20 95 95 477 239 791 32 68 71 164 89 215 28 84 31 102 31 226 1 128 0 138
-27 192 -37 75 -94 123 -176 148 -76 24 -214 33 -289 19z"/>
<path d="M7241 1312 c-51 -54 -121 -176 -300 -519 -211 -409 -266 -494 -325
-509 -15 -3 -39 -1 -53 5 -23 11 -25 16 -21 59 3 29 40 129 97 261 50 118 89
221 87 228 -4 9 -27 13 -75 13 l-69 0 10 -28 c9 -24 3 -48 -51 -182 -90 -229
-187 -365 -254 -358 -32 3 -32 3 -31 58 1 67 54 198 150 373 35 66 63 122 60
124 -10 10 -72 -8 -127 -36 -100 -50 -172 -104 -258 -191 l-83 -85 26 53 c36
71 102 178 137 223 33 41 27 49 -38 49 -54 0 -85 -41 -201 -267 -84 -164 -112
-210 -152 -247 -43 -40 -55 -46 -93 -46 -31 0 -49 6 -61 19 -17 19 -16 22 33
81 95 113 149 256 136 354 -14 111 -80 154 -188 122 -111 -33 -237 -172 -298
-329 -54 -142 -138 -251 -188 -245 -58 7 -32 114 85 350 35 72 64 141 64 155
l0 24 -127 -7 -128 -7 47 52 c31 35 48 64 53 90 12 69 -36 127 -83 102 -14 -7
-26 -37 -42 -108 -46 -201 -140 -426 -233 -558 -31 -45 -56 -67 -96 -87 -71
-36 -105 -36 -142 1 -25 26 -29 37 -29 88 0 32 5 74 10 94 9 33 14 37 68 49
154 34 276 137 297 251 9 48 -7 77 -52 96 -46 19 -90 11 -166 -30 -78 -41
-148 -121 -204 -234 -40 -81 -47 -103 -51 -171 -5 -95 12 -141 67 -177 51 -34
107 -41 176 -20 113 32 204 157 300 410 l42 110 50 -1 c63 -2 93 -17 93 -49 0
-14 -29 -80 -64 -148 -37 -71 -67 -143 -71 -169 -17 -115 64 -191 153 -144 29
15 98 85 125 125 l16 23 7 -38 c21 -121 108 -156 229 -95 l58 29 28 -20 c34
-25 112 -27 158 -4 l32 17 -15 -30 -16 -30 52 6 c64 7 73 13 105 77 94 189
301 414 359 392 22 -8 17 -34 -20 -95 -57 -94 -83 -153 -96 -214 -10 -51 -9
-62 7 -95 24 -48 79 -77 131 -67 28 5 53 23 99 70 34 34 64 60 67 57 3 -3 6
-15 6 -28 0 -57 79 -105 149 -89 42 9 114 76 157 146 20 32 38 59 39 59 1 0
-13 -38 -32 -85 -45 -113 -44 -119 35 -123 61 -3 62 -2 57 20 -8 33 22 173 51
237 31 69 178 218 251 255 78 39 133 32 133 -16 0 -58 -87 -132 -169 -144 -56
-8 -66 -16 -93 -68 -46 -90 -17 -221 61 -273 77 -52 208 -16 282 77 l33 40 18
-47 c10 -26 28 -56 40 -65 28 -21 79 -23 116 -4 34 17 130 119 161 169 12 20
24 37 26 37 1 0 -1 -19 -7 -42 -22 -96 21 -178 92 -178 47 0 104 40 152 106
49 68 138 227 138 247 0 36 -21 13 -66 -74 -51 -95 -120 -188 -167 -223 -26
-19 -28 -19 -44 -3 -37 36 17 209 114 368 l41 67 -30 6 c-80 16 -99 2 -172
-130 -104 -187 -191 -295 -252 -310 -43 -11 -59 6 -62 67 -3 48 2 65 42 144
93 184 230 324 327 333 45 4 51 2 79 -28 29 -31 50 -33 50 -5 0 19 -53 61 -96
75 -51 17 -125 6 -200 -29 -113 -53 -209 -171 -268 -329 -39 -104 -83 -173
-134 -207 -98 -65 -168 -26 -192 106 -8 40 -7 66 3 99 12 41 16 45 54 52 85
14 201 98 229 165 38 90 4 141 -88 130 -86 -11 -153 -51 -260 -156 -54 -53
-98 -92 -98 -86 0 5 26 64 58 130 95 195 256 452 347 553 l47 52 -63 0 c-62 0
-63 -1 -108 -48z m-2443 -474 c7 -7 12 -23 12 -37 -1 -82 -107 -195 -216 -231
-36 -12 -68 -20 -71 -17 -9 9 67 127 128 197 31 37 72 74 90 83 41 20 42 20
57 5z m923 -39 c19 -19 21 -30 17 -95 -4 -61 -13 -89 -53 -174 l-49 -100 -12
30 c-11 25 -19 30 -47 30 -19 0 -40 -6 -46 -14 -21 -25 -24 -82 -7 -117 16
-32 16 -34 -6 -51 -28 -21 -79 -32 -107 -23 -85 27 5 323 141 462 71 72 130
91 169 52z"/>
<path d="M6676 1039 c-30 -35 -32 -56 -10 -87 37 -53 134 -10 134 61 0 43 -15
57 -61 57 -29 0 -43 -7 -63 -31z"/>
</g>
</svg>
